<?xml version="1.0" standalone="no"?>
<!DOCTYPE svg PUBLIC "-//W3C//DTD SVG 20010904//EN"
 "http://www.w3.org/TR/2001/REC-SVG-20010904/DTD/svg10.dtd">
<svg version="1.0" xmlns="http://www.w3.org/2000/svg"
 width="1282.000000pt" height="1282.000000pt" viewBox="0 0 1282.000000 1282.000000"
 preserveAspectRatio="xMidYMid meet">
<metadata>
Created by potrace 1.11, written by Peter Selinger 2001-2013
</metadata>
<g transform="translate(0.000000,1282.000000) scale(0.100000,-0.100000)"
fill="#000000" stroke="none">
<path d="M0 6405 l0 -4205 6410 0 6410 0 0 4205 0 4205 -6410 0 -6410 0 0
-4205z m5824 -95 c228 -2032 412 -3698 409 -3703 -2 -4 -285 -7 -628 -7 l-623
0 -6 38 c-6 36 -326 3094 -326 3113 0 6 -258 8 -681 7 l-680 -3 -830 -1555
c-457 -855 -837 -1565 -845 -1578 l-14 -22 -631 0 c-597 0 -631 1 -624 18 8
22 3241 5966 3271 6014 28 44 1787 1405 1792 1385 1 -7 189 -1675 416 -3707z
m4061 485 c108 -24 221 -63 323 -112 l93 -44 -25 -42 c-14 -23 -92 -158 -173
-300 -106 -185 -152 -256 -163 -253 -8 3 -44 17 -80 32 -366 153 -789 -46
-918 -433 -22 -68 -26 -95 -26 -208 0 -114 4 -140 27 -210 37 -111 90 -198
172 -280 204 -204 503 -260 767 -144 38 17 71 29 72 27 2 -2 32 -55 68 -118
36 -63 113 -197 171 -298 l106 -182 -59 -30 c-402 -203 -878 -203 -1266 -1
-117 62 -183 105 -277 186 -227 193 -389 471 -454 775 -26 121 -26 430 0 550
103 481 453 881 904 1034 92 32 139 43 258 66 75 14 397 4 480 -15z m2262 0
c149 -33 422 -141 410 -162 -3 -5 -80 -138 -172 -298 -92 -159 -169 -292 -170
-294 -2 -2 -41 13 -87 32 -132 56 -259 69 -396 41 -175 -36 -341 -145 -438
-288 -263 -387 -76 -918 371 -1056 170 -52 332 -36 540 56 8 3 68 -97 328
-548 l28 -49 -103 -49 c-291 -139 -633 -169 -954 -86 -252 65 -508 225 -681
426 -239 277 -353 602 -340 965 6 160 21 249 67 385 162 488 578 845 1087 935
105 19 411 13 510 -10z m-4767 -1606 c127 -871 233 -1594 235 -1606 l5 -23
1791 -2 1790 -3 -581 -478 -582 -477 -1791 2 -1792 3 -171 1665 c-95 916 -169
1668 -166 1671 39 36 1025 839 1028 836 2 -2 107 -716 234 -1588z m4169 -1645
c-9 -8 -270 -224 -580 -479 l-564 -464 -165 0 c-151 -1 -163 0 -148 15 9 9
270 225 580 480 l563 463 165 1 c149 0 163 -1 149 -16z m80 -166 c-122 -101
-384 -317 -583 -480 l-361 -297 -105 -1 c-91 0 -102 2 -90 15 8 8 269 223 580
479 l565 465 108 0 109 1 -223 -182z m451 168 c-23 -22 -1112 -916 -1136 -932
-15 -11 -44 -14 -95 -12 l-73 3 579 477 580 477 80 0 c69 1 77 -1 65 -13z
m185 5 c-6 -5 -268 -221 -584 -480 -470 -386 -579 -471 -603 -471 -16 0 -28 4
-26 9 2 5 261 221 577 480 520 427 577 471 609 471 22 0 32 -4 27 -9z m144 5
c-33 -32 -1166 -956 -1172 -956 -5 0 -7 4 -5 9 6 17 1152 951 1166 951 9 0 13
-2 11 -4z"/>
<path d="M4115 7325 c-160 -289 -291 -530 -293 -536 -2 -5 138 -9 363 -9 l367
0 -6 33 c-3 17 -35 255 -71 527 -36 272 -67 499 -68 503 -1 4 -133 -229 -292
-518z"/>
</g>
</svg>
