<?xml version="1.0" standalone="no"?>
<!DOCTYPE svg PUBLIC "-//W3C//DTD SVG 20010904//EN"
 "http://www.w3.org/TR/2001/REC-SVG-20010904/DTD/svg10.dtd">
<svg version="1.0" xmlns="http://www.w3.org/2000/svg"
 width="349.000000pt" height="349.000000pt" viewBox="0 0 349.000000 349.000000"
 preserveAspectRatio="xMidYMid meet">
<metadata>
Created by potrace 1.11, written by Peter Selinger 2001-2013
</metadata>
<g transform="translate(0.000000,349.000000) scale(0.100000,-0.100000)"
fill="#000000" stroke="none">
<path d="M0 1750 l0 -1390 1730 0 1730 0 0 1390 0 1390 -1730 0 -1730 0 0
-1390z m1818 556 l73 -145 -199 -438 -198 -438 -146 -3 -147 -3 180 393 c99
216 219 480 267 585 48 106 89 193 92 193 3 0 38 -65 78 -144z m228 -516 l128
-280 181 -2 180 -3 58 -112 58 -113 -319 0 -319 0 -112 243 c-61 133 -111 249
-111 258 0 9 23 68 51 130 28 63 55 124 60 137 5 12 10 22 12 22 3 0 62 -126
133 -280z"/>
</g>
</svg>
