<?xml version="1.0" standalone="no"?>
<!DOCTYPE svg PUBLIC "-//W3C//DTD SVG 20010904//EN"
 "http://www.w3.org/TR/2001/REC-SVG-20010904/DTD/svg10.dtd">
<svg version="1.0" xmlns="http://www.w3.org/2000/svg"
 width="540.000000pt" height="540.000000pt" viewBox="0 0 540.000000 540.000000"
 preserveAspectRatio="xMidYMid meet">
<metadata>
Created by potrace 1.11, written by Peter Selinger 2001-2013
</metadata>
<g transform="translate(0.000000,540.000000) scale(0.100000,-0.100000)"
fill="#000000" stroke="none">
<path d="M0 2700 l0 -2700 2700 0 2700 0 0 2700 0 2700 -2700 0 -2700 0 0
-2700z m2699 1210 l158 -315 -597 -1318 c-329 -725 -600 -1320 -602 -1323 -3
-2 -196 -3 -430 -2 l-425 3 767 1676 c421 923 783 1714 804 1760 l37 84 65
-125 c36 -69 136 -267 223 -440z m644 -1475 l372 -810 540 -3 540 -2 165 -327
c91 -180 167 -330 168 -335 2 -4 -424 -8 -946 -8 l-949 0 -341 744 c-188 410
-342 750 -342 757 0 10 347 806 373 854 12 24 -40 132 420 -870z"/>
</g>
</svg>
